<?xml version="1.0" encoding="UTF-8" standalone="no"?>
<!-- Created with Inkscape (http://www.inkscape.org/) -->

<svg
   width="825.23322mm"
   height="357.93408mm"
   viewBox="0 0 825.2332 357.93409"
   version="1.1"
   id="svg1"
   inkscape:version="1.4 (86a8ad7, 2024-10-11)"
   sodipodi:docname="FULL LOGO.svg"
   inkscape:export-filename="FULL LOGO PRINT AND SIGN.png"
   inkscape:export-xdpi="80"
   inkscape:export-ydpi="80"
   xmlns:inkscape="http://www.inkscape.org/namespaces/inkscape"
   xmlns:sodipodi="http://sodipodi.sourceforge.net/DTD/sodipodi-0.dtd"
   xmlns:xlink="http://www.w3.org/1999/xlink"
   xmlns="http://www.w3.org/2000/svg"
   xmlns:svg="http://www.w3.org/2000/svg">
  <sodipodi:namedview
     id="namedview1"
     pagecolor="#ffffff"
     bordercolor="#000000"
     borderopacity="0.25"
     inkscape:showpageshadow="2"
     inkscape:pageopacity="0.0"
     inkscape:pagecheckerboard="0"
     inkscape:deskcolor="#d1d1d1"
     inkscape:document-units="mm"
     inkscape:zoom="0.10322759"
     inkscape:cx="1549.9732"
     inkscape:cy="886.39093"
     inkscape:window-width="1920"
     inkscape:window-height="1129"
     inkscape:window-x="-8"
     inkscape:window-y="-4"
     inkscape:window-maximized="1"
     inkscape:current-layer="layer1"
     showguides="true" />
  <defs
     id="defs1">
    <linearGradient
       inkscape:collect="always"
       xlink:href="#linearGradient4"
       id="linearGradient5"
       x1="186.82806"
       y1="20.853277"
       x2="413.17209"
       y2="20.853277"
       gradientUnits="userSpaceOnUse"
       gradientTransform="translate(-193.57912,127.25429)" />
    <linearGradient
       id="linearGradient4"
       inkscape:collect="always">
      <stop
         style="stop-color:#ff69b4;stop-opacity:1;"
         offset="0"
         id="stop4" />
      <stop
         style="stop-color:#ffac1c;stop-opacity:1;"
         offset="1"
         id="stop5" />
    </linearGradient>
    <filter
       style="color-interpolation-filters:sRGB"
       inkscape:label="Drop Shadow"
       id="filter44"
       x="-0.057434693"
       y="-0.057434689"
       width="1.1148694"
       height="1.1148694">
      <feFlood
         result="flood"
         in="SourceGraphic"
         flood-opacity="0.780392"
         flood-color="rgb(0,0,0)"
         id="feFlood43" />
      <feGaussianBlur
         result="blur"
         in="SourceGraphic"
         stdDeviation="5.000000"
         id="feGaussianBlur43" />
      <feOffset
         result="offset"
         in="blur"
         dx="0.000000"
         dy="0.000000"
         id="feOffset43" />
      <feComposite
         result="comp1"
         operator="in"
         in="flood"
         in2="offset"
         id="feComposite43" />
      <feComposite
         result="comp2"
         operator="over"
         in="SourceGraphic"
         in2="comp1"
         id="feComposite44" />
    </filter>
    <linearGradient
       inkscape:collect="always"
       xlink:href="#linearGradient4"
       id="linearGradient7"
       x1="232.91885"
       y1="12.730905"
       x2="340.0108"
       y2="12.730905"
       gradientUnits="userSpaceOnUse" />
    <filter
       style="color-interpolation-filters:sRGB"
       inkscape:label="Drop Shadow"
       id="filter46"
       x="-0.13587746"
       y="-0.13531137"
       width="1.2717549"
       height="1.2706227">
      <feFlood
         result="flood"
         in="SourceGraphic"
         flood-opacity="0.780392"
         flood-color="rgb(0,0,0)"
         id="feFlood44" />
      <feGaussianBlur
         result="blur"
         in="SourceGraphic"
         stdDeviation="5.000000"
         id="feGaussianBlur44" />
      <feOffset
         result="offset"
         in="blur"
         dx="0.000000"
         dy="0.000000"
         id="feOffset44" />
      <feComposite
         result="comp1"
         operator="in"
         in="flood"
         in2="offset"
         id="feComposite45" />
      <feComposite
         result="comp2"
         operator="over"
         in="SourceGraphic"
         in2="comp1"
         id="feComposite46" />
    </filter>
    <linearGradient
       inkscape:collect="always"
       xlink:href="#linearGradient4"
       id="linearGradient1"
       gradientUnits="userSpaceOnUse"
       x1="232.91885"
       y1="12.730905"
       x2="340.0108"
       y2="12.730905" />
    <linearGradient
       inkscape:collect="always"
       xlink:href="#linearGradient4"
       id="linearGradient2"
       gradientUnits="userSpaceOnUse"
       x1="232.91885"
       y1="12.730905"
       x2="340.0108"
       y2="12.730905" />
    <linearGradient
       inkscape:collect="always"
       xlink:href="#linearGradient1-2"
       id="linearGradient2-4"
       x1="108.74761"
       y1="198.91556"
       x2="491.25238"
       y2="198.91556"
       gradientUnits="userSpaceOnUse"
       gradientTransform="matrix(2.4035848,0,0,2.4035848,-611.33044,-103.02741)" />
    <linearGradient
       id="linearGradient1-2"
       inkscape:collect="always">
      <stop
         style="stop-color:#ff69b4;stop-opacity:1;"
         offset="0.42729566"
         id="stop1" />
      <stop
         style="stop-color:#ffac1c;stop-opacity:1;"
         offset="0.58590734"
         id="stop2" />
    </linearGradient>
    <linearGradient
       inkscape:collect="always"
       xlink:href="#linearGradient1-2"
       id="linearGradient6"
       gradientUnits="userSpaceOnUse"
       gradientTransform="matrix(2.4035848,0,0,2.4035848,-460.76715,110.89705)"
       x1="350.03922"
       y1="201.9317"
       x2="474.66357"
       y2="197.40749" />
    <linearGradient
       inkscape:collect="always"
       xlink:href="#linearGradient4"
       id="linearGradient7-1"
       x1="232.91885"
       y1="12.730905"
       x2="340.0108"
       y2="12.730905"
       gradientUnits="userSpaceOnUse" />
    <linearGradient
       inkscape:collect="always"
       xlink:href="#linearGradient1-2"
       id="linearGradient8"
       gradientUnits="userSpaceOnUse"
       gradientTransform="matrix(2.4035848,0,0,3.2873132,-1189.5943,-10.538479)"
       x1="352.94595"
       y1="256.23285"
       x2="354.22406"
       y2="73.084091" />
  </defs>
  <g
     inkscape:label="Layer 1"
     inkscape:groupmode="layer"
     id="layer1"
     transform="translate(-43.249121,-151.26809)">
    <g
       id="g6"
       transform="translate(50.000172,116.33263)">
      <g
         id="g9"
         transform="matrix(1.0498265,0,0,1.0498265,-194.3175,134.7427)"
         style="fill:url(#linearGradient7);fill-opacity:1;stroke:none;stroke-width:1.90508;stroke-dasharray:none;stroke-opacity:1">
        <path
           d="m 295.68183,30.485691 a 23.369531,30.215877 45 0 1 -5.18756,1.322887 23.369531,30.215877 45 0 1 -6.81841,-0.02634 23.369531,30.215877 45 0 1 -6.11939,-1.850948 23.369531,30.215877 45 0 1 -5.00486,-3.549532 23.369531,30.215877 45 0 1 -3.54954,-5.004873 23.369531,30.215877 45 0 1 -1.85094,-6.119386 23.369531,30.215877 45 0 1 -0.0264,-6.8184042 23.369531,30.215877 45 0 1 0.99104,-3.8847053 L 232.91885,66.549896 Z"
           style="fill:url(#linearGradient1);fill-opacity:1;stroke:none;stroke-width:1.90508;stroke-dasharray:none;stroke-opacity:1"
           id="path9-4" />
        <path
           d="m 277.24781,-5.0238802 a 23.369531,30.215877 45 0 1 5.18756,-1.322887 23.369531,30.215877 45 0 1 6.81841,0.02634 23.369531,30.215877 45 0 1 6.11939,1.850948 23.369531,30.215877 45 0 1 5.00486,3.54953197 23.369531,30.215877 45 0 1 3.54954,5.00487303 23.369531,30.215877 45 0 1 1.85094,6.1193862 23.369531,30.215877 45 0 1 0.0264,6.818405 23.369531,30.215877 45 0 1 -0.99104,3.884705 l 35.19692,-61.995507 z"
           style="fill:url(#linearGradient2);fill-opacity:1;stroke:none;stroke-width:1.90508;stroke-dasharray:none;stroke-opacity:1"
           id="path9-4-2" />
      </g>
      <path
         style="color:#000000;fill:url(#linearGradient5);stroke:none;stroke-width:2;stroke-dasharray:none;stroke-opacity:1"
         d="m 106.42088,34.935935 c -5.38924,8.7e-5 -10.771088,0.385294 -16.105468,1.152343 -5.33443,0.766874 -10.6083,1.913404 -15.7793,3.431641 -5.17113,1.51833 -10.2265,3.403754 -15.1289,5.642578 -4.90209,2.238843 -9.6383,4.824603 -14.17188,7.738281 -4.53391,2.913546 -8.85266,6.146639 -12.92578,9.675782 l -0.002,0.002 c -4.07293,3.529374 -7.88879,7.344873 -11.41797,11.417969 -3.52912,4.072944 -6.76221,8.392052 -9.67578,12.925781 -2.9136803,4.533582 -5.4994403,9.269786 -7.7382803,14.17187 -2.23883,4.90241 -4.12425004,9.95778 -5.642583,15.12891 -1.51824,5.171 -2.66477,10.44486 -3.43164,15.77929 -0.76705,5.33438 -1.15226,10.71623 -1.15235,16.10547 9e-5,5.38924 0.3853,10.7711 1.15235,16.10547 0.76687,5.33444 1.9134,10.6083 3.43164,15.7793 1.51836296,5.17094 3.403783,10.22668 5.642583,15.1289 2.23882,4.90228 4.82458,9.63812 7.7382803,14.17188 2.91357,4.53373 6.14666,8.85284 9.67578,12.92578 h 0.002 c 3.5292,4.0729 7.34311,7.88878 11.41602,11.41797 4.0731,3.52934 8.3938,6.76401 12.92773,9.67774 4.53358,2.91368 9.26979,5.49944 14.17188,7.73828 4.9024,2.23882 9.95777,4.12425 15.1289,5.64258 5.171,1.51824 10.44487,2.66671 15.7793,3.43359 v -0.002 c 5.33438,0.76705 10.716228,1.15225 16.105468,1.15234 1.85177,0 3.70319,-0.0439 5.55273,-0.13477 1.84909,-0.0909 3.69666,-0.22863 5.53907,-0.41015 1.84287,-0.18148 3.68192,-0.40801 5.51367,-0.67969 1.83191,-0.27172 3.65629,-0.58793 5.47265,-0.94922 h 0.002 c 1.81567,-0.36122 3.6222,-0.76694 5.41797,-1.21679 1.7964,-0.44997 3.58135,-0.94485 5.35351,-1.48243 h 0.002 c 1.77142,-0.5374 3.52855,-1.11855 5.27148,-1.74218 1.74371,-0.6238 3.47259,-1.28944 5.18359,-1.99805 1.71092,-0.70865 3.40405,-1.4602 5.07813,-2.25195 1.67399,-0.79175 3.32976,-1.62512 4.96289,-2.49805 1.63235,-0.87267 3.24445,-1.78466 4.83203,-2.73633 l 0.002,-0.002 c 1.5877,-0.9515 3.15229,-1.94249 4.69141,-2.9707 h 0.002 c 1.5393,-1.02871 3.05208,-2.09625 4.53907,-3.19922 1.48737,-1.10302 2.94743,-2.24136 4.3789,-3.41602 1.43164,-1.17488 2.83477,-2.38519 4.20703,-3.62891 1.3721,-1.24368 2.71403,-2.52056 4.02344,-3.83007 1.30952,-1.30942 2.58639,-2.65135 3.83008,-4.02344 1.24291,-1.37159 2.4528,-2.77419 3.62695,-4.20508 l 0.002,-0.002 c 1.17424,-1.43079 2.31337,-2.8903 3.41602,-4.37695 v -0.002 c 1.10312,-1.4874 2.17041,-3.00129 3.19922,-4.54102 1.0289,-1.53968 2.01859,-3.10309 2.9707,-4.69141 0.95218,-1.5885 1.86521,-3.20066 2.73828,-4.83398 0.87294,-1.63313 1.7063,-3.28695 2.49805,-4.96094 v -0.002 c 0.79175,-1.67408 1.5433,-3.36721 2.25195,-5.07812 0.70838,-1.71044 1.37443,-3.43852 1.99805,-5.18164 v -0.002 c 0.62364,-1.74294 1.20479,-3.50006 1.74219,-5.27149 v -0.002 c 0.53739,-1.77155 1.03258,-3.55578 1.48242,-5.35156 v -0.002 c 0.44985,-1.79577 0.85557,-3.60229 1.2168,-5.41797 v -0.002 c 0.36129,-1.81637 0.67749,-3.64074 0.94922,-5.47266 0.27158,-1.8311 0.49824,-3.66949 0.67968,-5.51171 v -0.002 c 0.18152,-1.84241 0.31924,-3.68998 0.41016,-5.53907 0.0909,-1.84954 0.13477,-3.70096 0.13476,-5.55273 -9e-5,-5.38924 -0.38529,-10.77109 -1.15234,-16.10547 -0.76696,-5.33382 -1.91348,-10.60694 -3.43164,-15.77734 v -0.002 c -1.51806,-5.1705 -3.4042,-10.22705 -5.64258,-15.12891 -2.23884,-4.902084 -4.8246,-9.638288 -7.73828,-14.17187 -2.91375,-4.533747 -6.14842,-8.852855 -9.67773,-12.925781 -3.52918,-4.073096 -7.34505,-7.888595 -11.41797,-11.417969 -4.07295,-3.529122 -8.39205,-6.764167 -12.92578,-9.677735 -4.53377,-2.913702 -9.2696,-5.499462 -14.17188,-7.738281 -4.90222,-2.238798 -9.95797,-4.124222 -15.1289,-5.642578 -5.17101,-1.518238 -10.44486,-2.664767 -15.7793,-3.431641 -5.33438,-0.767049 -10.71623,-1.152256 -16.10547,-1.152343 z m 0,29.083984 c 4.0042,6.5e-5 8.00336,0.287504 11.9668,0.857422 3.96348,0.569786 7.8806,1.420778 11.72265,2.548828 3.84201,1.128138 7.59984,2.529933 11.24219,4.193359 3.64239,1.663442 7.16071,3.585121 10.5293,5.75 3.36856,2.16478 6.57732,4.567318 9.60351,7.189454 3.02618,2.622323 5.8622,5.458067 8.48438,8.484375 2.62228,3.026182 5.02454,6.234943 7.18945,9.603513 2.16486,3.36845 4.08654,6.88705 5.75,10.5293 1.66331,3.64249 3.06342,7.40005 4.19141,11.24218 1.12818,3.84204 1.98086,7.75916 2.55078,11.72266 0.56992,3.96344 0.85735,7.96259 0.85742,11.9668 0,1.37586 -0.0341,2.75079 -0.10156,4.125 -0.0676,1.37435 -0.16975,2.7478 -0.30469,4.11718 -0.13483,1.36925 -0.30205,2.73472 -0.50391,4.09571 -0.20189,1.3611 -0.43859,2.71684 -0.70703,4.0664 -0.26848,1.34951 -0.56992,2.69264 -0.90429,4.02735 -0.33433,1.33472 -0.7002,2.6618 -1.09961,3.97851 -0.39928,1.31601 -0.83159,2.62313 -1.29493,3.91797 -0.46348,1.29557 -0.95983,2.58029 -1.48632,3.85156 -0.52653,1.27121 -1.08361,2.5296 -1.67188,3.77344 -0.58805,1.24324 -1.20715,2.47265 -1.85547,3.68555 -0.64869,1.21355 -1.32769,2.40958 -2.03515,3.58984 h 0.002 c -0.70742,1.18012 -1.44451,2.34234 -2.20898,3.48633 v 0.002 c -0.76441,1.14402 -1.55734,2.26791 -2.37696,3.37305 -0.81967,1.10512 -1.66615,2.19033 -2.53906,3.2539 l -0.002,0.002 c -0.8728,1.0637 -1.77138,2.10541 -2.69532,3.125 -0.92347,1.01876 -1.87143,2.01604 -2.84375,2.98828 h -0.002 c -0.97289,0.97297 -1.96882,1.92165 -2.98828,2.84571 -1.01959,0.92408 -2.06129,1.82238 -3.125,2.69531 -1.06358,0.87277 -2.14683,1.71953 -3.25195,2.53906 h -0.002 c -1.10513,0.81976 -2.23097,1.61241 -3.375,2.37695 -1.14368,0.76401 -2.30459,1.50004 -3.48437,2.20704 h -0.002 v 0.002 c -1.18013,0.70745 -2.37839,1.3845 -3.5918,2.0332 -1.21291,0.64829 -2.4423,1.26745 -3.68555,1.85547 -1.24384,0.58827 -2.50028,1.14534 -3.77148,1.67187 -1.27127,0.5265 -2.55599,1.02285 -3.85157,1.48633 -1.29542,0.46354 -2.60331,0.8955 -3.91992,1.29492 -1.31612,0.39921 -2.64244,0.76544 -3.97656,1.09961 -1.33471,0.33438 -2.67783,0.63582 -4.02734,0.9043 -1.34956,0.26844 -2.7053,0.50514 -4.06641,0.70703 -1.36099,0.20186 -2.72645,0.36907 -4.0957,0.50391 -1.36938,0.13493 -2.74284,0.2371 -4.11719,0.30468 -1.37421,0.0675 -2.74914,0.10157 -4.125,0.10157 -4.0042,-7e-5 -8.003358,-0.28751 -11.966798,-0.85743 -3.96348,-0.56979 -7.8806,-1.42077 -11.72265,-2.54882 -3.84215,-1.12812 -7.59971,-2.52992 -11.24219,-4.19336 -3.64225,-1.66346 -7.16085,-3.58514 -10.5293,-5.75 -3.36871,-2.1649 -6.57915,-4.56716 -9.60547,-7.18946 -3.02582,-2.62189 -5.86048,-5.45664 -8.48242,-8.48242 v -0.002 c -2.62174,-3.02585 -5.02495,-6.23539 -7.18945,-9.60351 -2.16488,-3.36859 -4.08656,-6.88691 -5.75,-10.5293 -1.66343,-3.64235 -3.06522,-7.40018 -4.19336,-11.24219 -1.12805,-3.84205 -1.97904,-7.75917 -2.54883,-11.72265 -0.56992,-3.96344 -0.85736,-7.9626 -0.85742,-11.9668 6e-5,-4.0042 0.2875,-8.00336 0.85742,-11.9668 0.56979,-3.96348 1.42078,-7.8806 2.54883,-11.72265 1.12812,-3.84215 2.52991,-7.59971 4.19336,-11.24219 1.66346,-3.64225 3.58514,-7.16085 5.75,-10.5293 2.16478,-3.368554 4.56732,-6.577315 7.18945,-9.60351 2.62188,-3.02596 5.45663,-5.862305 8.48242,-8.484375 3.02633,-2.622152 6.23677,-5.02469 9.60547,-7.189454 3.36845,-2.164862 6.88705,-4.08654 10.5293,-5.75 3.64248,-1.663445 7.40004,-3.06524 11.24219,-4.193359 3.84205,-1.12805 7.75917,-1.979041 11.72265,-2.548828 3.96344,-0.569918 7.962598,-0.857357 11.966798,-0.857422 z"
         id="path2" />
      <path
         style="font-size:46.6183px;line-height:0.9;font-family:'Conduit ITC ExtraBold';-inkscape-font-specification:'Conduit ITC ExtraBold, ';text-align:center;letter-spacing:-1.22753px;text-anchor:middle;fill:url(#linearGradient2-4);stroke-width:3.00448"
         d="m 42.999609,356.71159 v -68.35115 c 0,-0.78434 -0.448196,-1.1205 -1.120503,-1.1205 H 28.881192 c -0.784361,0 -1.008472,0.33616 -1.008472,1.1205 v 15.91125 c 0,9.4123 0.336166,18.93664 0.560276,23.41868 l -0.448221,0.11201 c -0.336141,-1.12053 -1.456668,-3.6977 -2.353061,-5.49051 L 7.2553475,287.91224 c -0.224015,-0.44819 -0.672307,-0.6723 -1.2325594,-0.6723 H -5.6305356 c -0.6723067,0 -1.1205032,0.33616 -1.1205032,1.1205 v 68.35115 c 0,0.78436 0.4481965,1.1205 1.1205032,1.1205 H 7.5914885 c 0.784362,0 1.120503,-0.33614 1.120503,-1.1205 v -15.68714 c 0,-10.42077 -0.336141,-19.16073 -0.672307,-23.19457 l 0.448221,-0.11201 c 0.448196,1.34462 1.456668,3.80973 2.3530605,5.49051 l 18.376368,33.8394 c 0.224014,0.44822 0.784362,0.78436 1.232558,0.78436 h 11.429214 c 0.784362,0 1.120503,-0.33614 1.120503,-1.1205 z M 105.48704,337.2147 v -2.35306 c 0,-4.36999 -2.57717,-9.30024 -6.274839,-11.98947 -0.78437,-0.56025 -0.67231,-0.89642 0,-1.45667 3.697669,-2.68923 6.274839,-7.17126 6.274839,-11.6533 v -2.12897 c 0,-12.99792 -8.403819,-20.39329 -22.410202,-20.39329 H 55.064091 c -0.672307,0 -1.120528,0.33616 -1.120528,1.1205 v 68.35115 c 0,0.78436 0.448221,1.1205 1.120528,1.1205 h 28.012747 c 14.118443,0 22.410202,-8.29176 22.410202,-20.61739 z M 90.024013,309.20195 c 0,3.58562 -2.80128,6.3869 -6.947175,6.3869 H 70.863286 c -0.896417,0 -1.232582,-0.4482 -1.232582,-1.23256 v -11.98946 c 0,-0.78436 0.336165,-1.23256 1.232582,-1.23256 h 12.213552 c 4.033845,0 6.947175,2.91334 6.947175,6.49896 z m 0,28.23686 c 0,3.58564 -3.137445,6.3869 -6.947175,6.3869 H 70.863286 c -0.896417,0 -1.232582,-0.33614 -1.232582,-1.1205 v -12.99792 c 0,-0.78436 0.336165,-1.23256 1.232582,-1.23256 h 12.213552 c 4.033845,0 6.947175,2.80126 6.947175,6.38691 z m 73.580487,19.27278 v -68.35115 c 0,-0.78434 -0.44822,-1.1205 -1.12053,-1.1205 h -12.99791 c -0.78437,0 -1.00845,0.33616 -1.00845,1.1205 v 15.91125 c 0,9.4123 0.33614,18.93664 0.56025,23.41868 l -0.44822,0.11201 c -0.33614,-1.12053 -1.45664,-3.6977 -2.35306,-5.49051 L 127.86021,287.9122 c -0.22401,-0.4482 -0.67231,-0.67231 -1.23256,-0.67231 h -11.65332 c -0.67231,0 -1.1205,0.33617 -1.1205,1.1205 v 68.35115 c 0,0.78436 0.44819,1.12051 1.1205,1.12051 h 13.22202 c 0.78436,0 1.12053,-0.33615 1.12053,-1.12051 V 341.0244 c 0,-10.42076 -0.33617,-19.16073 -0.67231,-23.19457 l 0.4482,-0.112 c 0.4482,1.34461 1.45667,3.80973 2.35306,5.4905 l 18.37639,33.8394 c 0.22402,0.44822 0.78434,0.78436 1.23256,0.78436 h 11.42919 c 0.78436,0 1.12053,-0.33614 1.12053,-1.1205 z m 55.98846,0 v -11.76535 c 0,-0.78437 -0.4482,-1.12053 -1.12051,-1.12053 h -27.0043 c -0.89642,0 -1.23258,-0.33614 -1.23258,-1.1205 v -12.54972 c 0,-0.78436 0.33616,-1.1205 1.23258,-1.1205 h 22.1861 c 0.6723,0 1.1205,-0.33617 1.1205,-1.12053 V 316.1491 c 0,-0.78436 -0.4482,-1.1205 -1.1205,-1.1205 h -22.1861 c -0.89642,0 -1.23258,-0.33617 -1.23258,-1.1205 v -11.54127 c 0,-0.78436 0.33616,-1.23256 1.23258,-1.23256 h 27.0043 c 0.78434,0 1.12051,-0.22402 1.12051,-1.00845 v -11.76538 c 0,-0.78434 -0.4482,-1.1205 -1.12051,-1.1205 h -42.80352 c -0.67228,0 -1.1205,0.33616 -1.1205,1.1205 v 68.35115 c 0,0.78436 0.44822,1.1205 1.1205,1.1205 h 42.80352 c 0.78434,0 1.12051,-0.33614 1.12051,-1.1205 z"
         id="text9"
         aria-label="NBNE" />
    </g>
    <g
       id="g8"
       transform="matrix(1.1316356,0,0,1.1316356,5.9342467,120.94529)">
      <path
         style="font-size:99.1886px;line-height:1.3;font-family:'Conduit ITC ExtraBold';-inkscape-font-specification:'Conduit ITC ExtraBold, ';text-align:center;letter-spacing:0px;text-anchor:middle;white-space:pre;fill:url(#linearGradient6);stroke-width:3.00448"
         d="m 309.71497,268.71653 c 0,-11.80344 -7.63752,-19.1434 -19.73853,-19.1434 h -21.92068 c -0.59513,0 -0.99189,0.29757 -0.99189,0.99189 v 60.50504 c 0,0.69432 0.39676,0.99189 0.99189,0.99189 h 11.90263 c 0.59513,0 0.99189,-0.29757 0.99189,-0.99189 v -23.50769 c 0,-0.69432 0.29756,-0.99189 1.09107,-0.99189 h 7.93509 c 11.90263,0 19.73853,-7.73671 19.73853,-17.85395 z m -13.68803,-0.19837 c 0,2.97565 -2.67809,5.65375 -6.0505,5.65375 h -7.93509 c -0.79351,0 -1.09107,-0.29757 -1.09107,-0.99189 v -10.21643 c 0,-0.69432 0.29756,-1.09107 1.09107,-1.09107 h 7.93509 c 3.37241,0 6.0505,2.77728 6.0505,5.75294 z m 67.34904,42.25434 -9.52211,-26.18579 c -0.19838,-0.59513 -0.0992,-1.09108 0.49594,-1.48783 4.06674,-2.67809 7.63753,-8.03428 7.63753,-13.58884 v -0.99188 c 0,-11.70426 -7.73671,-18.94503 -19.83772,-18.94503 h -24.79715 c -0.59513,0 -0.99189,0.29757 -0.99189,0.99189 v 60.50504 c 0,0.69432 0.39676,0.99189 0.99189,0.99189 h 11.90263 c 0.59513,0 0.99188,-0.29757 0.99188,-0.99189 v -23.50769 c 0,-0.69432 0.29757,-0.99189 1.09108,-0.99189 h 7.8359 c 0.39675,0 0.69432,0.19838 0.8927,0.59513 l 8.82778,24.20202 c 0.0992,0.39675 0.49594,0.69432 0.8927,0.69432 h 12.79533 c 0.8927,0 1.09107,-0.49594 0.79351,-1.28945 z m -15.07667,-41.7584 c 0,3.27322 -2.67809,5.65375 -6.14969,5.65375 h -10.81156 c -0.79351,0 -1.09108,-0.39676 -1.09108,-1.09108 v -10.61318 c 0,-0.69432 0.29757,-1.09107 1.09108,-1.09107 h 10.81156 c 3.57079,0 6.14969,2.47971 6.14969,5.75294 z m 37.19565,42.05596 v -60.50504 c 0,-0.69432 -0.49595,-0.99189 -1.09108,-0.99189 h -11.80344 c -0.59513,0 -0.99189,0.29757 -0.99189,0.99189 v 60.50504 c 0,0.69432 0.39676,0.99189 0.99189,0.99189 h 11.80344 c 0.69432,0 1.09108,-0.29757 1.09108,-0.99189 z m 56.33912,0 v -60.50504 c 0,-0.69432 -0.39675,-0.99189 -0.99189,-0.99189 h -11.50587 c -0.69432,0 -0.8927,0.29757 -0.8927,0.99189 v 14.08478 c 0,8.33184 0.29757,16.76287 0.49594,20.73042 l -0.39675,0.0992 c -0.29757,-0.99189 -1.28945,-3.27323 -2.08296,-4.86025 l -16.26693,-30.45089 c -0.19838,-0.39676 -0.59513,-0.59514 -1.09108,-0.59514 h -10.31561 c -0.59513,0 -0.99189,0.29757 -0.99189,0.99189 v 60.50504 c 0,0.69432 0.39676,0.99189 0.99189,0.99189 h 11.70425 c 0.69432,0 0.99189,-0.29757 0.99189,-0.99189 v -13.8864 c 0,-9.22454 -0.29757,-16.96125 -0.59513,-20.53204 l 0.39675,-0.0992 c 0.39676,1.19027 1.28945,3.37241 2.08296,4.86024 l 16.26693,29.95496 c 0.19838,0.39675 0.69432,0.69432 1.09108,0.69432 h 10.11723 c 0.69432,0 0.99189,-0.29757 0.99189,-0.99189 z m 46.51953,-50.09024 v -10.4148 c 0,-0.69432 -0.39675,-0.99189 -0.8927,-0.99189 h -37.79085 c -0.59513,0 -0.99189,0.29757 -0.99189,0.99189 v 10.4148 c 0,0.69432 0.39676,0.8927 0.99189,0.8927 h 10.91074 c 0.8927,0 1.09108,0.39675 1.09108,1.09107 v 48.10647 c 0,0.69432 0.39675,0.99189 0.99188,0.99189 h 11.80345 c 0.59513,0 0.8927,-0.29757 0.8927,-0.99189 v -48.10647 c 0,-0.69432 0.29756,-1.09107 1.19026,-1.09107 h 10.91074 c 0.59514,0 0.8927,-0.19838 0.8927,-0.8927 z m 78.65657,51.47889 v -11.70426 c 0,-0.69432 -0.29756,-1.28945 -1.09107,-1.28945 -3.96755,-0.19838 -7.33996,-1.7854 -10.51399,-4.16592 -0.79351,-0.59513 -0.8927,-1.09108 -0.49595,-1.88459 1.7854,-3.4716 3.96755,-5.95131 7.53834,-5.95131 h 3.57079 c 0.69432,0 0.99188,-0.39676 0.99188,-1.09108 v -11.10912 c 0,-0.69432 -0.29756,-1.19026 -1.09107,-1.19026 h -3.4716 c -9.32373,0 -14.08478,4.86024 -17.35801,10.31561 -0.39675,0.59513 -0.8927,0.59513 -1.28945,0.29757 -0.69432,-0.59513 -1.48783,-1.28945 -2.28134,-1.88459 -0.49594,-0.39675 -0.39675,-0.89269 0.19838,-1.28945 4.66186,-2.77728 8.13346,-6.84401 8.13346,-12.69614 v -1.88458 c 0,-11.00994 -7.83589,-18.34989 -20.23447,-18.34989 -10.91075,0 -19.73853,7.63752 -19.73853,18.94502 0,5.55456 1.88458,9.32373 4.86024,12.29939 0.49594,0.59513 0.59513,1.09107 -0.0992,1.6862 -2.77728,2.47972 -4.66186,5.85213 -4.66186,10.21643 v 2.47971 c 0,11.60507 7.04239,19.24259 19.04421,19.24259 h 3.07485 c 7.04239,0 11.50587,-2.47971 14.67991,-5.85213 0.59513,-0.59513 1.19026,-0.59513 1.88458,0 4.26511,3.4716 9.32373,5.95132 17.25882,5.95132 0.79351,0 1.09107,-0.39675 1.09107,-1.09107 z m -31.04603,-43.94055 c 0,2.97565 -1.98377,4.66186 -5.25699,6.0505 -0.8927,0.39675 -1.68621,0.29757 -2.57891,-0.29757 -2.5789,-1.78539 -4.26511,-3.86835 -4.26511,-7.33995 0,-3.66998 2.57891,-5.95132 6.1497,-5.95132 3.37241,0 5.95131,2.67809 5.95131,5.85213 z m 1.48783,29.45901 c -1.38864,1.48783 -2.97566,2.38053 -5.15781,2.38053 h -2.77728 c -3.17403,0 -5.65375,-2.28134 -5.65375,-5.15781 v -2.28134 c 0,-1.78539 0.69432,-3.17403 1.98377,-4.26511 0.79351,-0.69432 1.28946,-0.49594 2.08296,0 3.47161,2.08296 6.84402,4.56268 9.42292,7.24077 0.8927,0.8927 0.8927,1.28945 0.0992,2.08296 z m 91.35274,-3.27322 c 0,-11.60507 -6.84401,-16.26693 -16.26693,-19.93691 -5.45537,-2.08296 -11.3075,-3.57079 -11.3075,-8.03428 0,-3.57079 2.67809,-5.95131 6.14969,-5.95131 h 1.48783 c 3.37241,0 5.65375,1.58701 7.04239,5.05861 0.29757,0.8927 0.8927,1.09108 1.48783,0.79351 l 9.81967,-4.95943 c 0.59513,-0.29756 0.8927,-1.38864 0.29757,-2.38052 -0.79351,-1.48783 -1.7854,-2.97566 -2.97566,-4.26511 -3.4716,-3.86836 -8.43103,-6.64564 -15.6718,-6.64564 h -1.48783 c -12.39857,0 -20.03609,7.33996 -20.03609,18.54827 0,11.40669 7.33995,15.6718 16.4653,19.34178 5.95132,2.38052 11.10913,3.66997 11.10913,8.6294 0,4.06674 -3.17404,5.85213 -6.74483,5.85213 h -2.47971 c -3.37242,0 -5.65375,-1.58702 -7.04239,-5.05862 -0.29757,-0.8927 -0.8927,-1.09107 -1.48783,-0.79351 l -9.81967,4.95943 c -0.59514,0.29757 -0.8927,1.38864 -0.29757,2.38053 0.8927,1.58702 1.98377,3.17403 3.27322,4.56267 3.37242,3.76917 8.33185,6.34808 15.37424,6.34808 h 3.17403 c 12.59695,0 19.93691,-7.24077 19.93691,-18.44908 z m 22.91262,16.36611 v -60.50504 c 0,-0.69432 -0.49595,-0.99189 -1.09108,-0.99189 h -11.80344 c -0.59513,0 -0.99189,0.29757 -0.99189,0.99189 v 60.50504 c 0,0.69432 0.39676,0.99189 0.99189,0.99189 h 11.80344 c 0.69432,0 1.09108,-0.29757 1.09108,-0.99189 z m 56.83506,-50.48699 c -1.58701,-3.17404 -3.37241,-5.75294 -5.55456,-7.73671 -3.27322,-2.87647 -7.43914,-4.46349 -13.39046,-4.46349 h -7.24077 c -12.29938,0 -19.83771,7.33996 -19.83771,18.05233 v 28.6655 c 0,10.91075 7.33995,18.05233 19.83771,18.05233 h 5.85213 c 12.29939,0 19.83772,-7.0424 19.83772,-18.05233 v -15.77099 c 0,-0.69432 -0.29756,-0.99188 -0.99188,-0.99188 h -22.31744 c -0.59513,0 -0.99188,0.29756 -0.99188,0.99188 v 9.42292 c 0,0.69432 0.39675,0.99189 0.99188,0.99189 h 8.43103 c 0.69432,0 1.09108,0.29756 1.09108,0.99188 v 4.3643 c 0,3.27322 -2.47972,5.75294 -6.05051,5.75294 h -5.85213 c -3.4716,0 -6.24888,-2.5789 -6.24888,-5.75294 v -28.6655 c 0,-3.17404 2.6781,-5.75294 6.24888,-5.75294 h 6.84402 c 2.77728,0 5.15781,1.78539 7.04239,5.75294 0.29756,0.59513 0.8927,0.89269 1.58702,0.59513 l 10.31561,-4.86024 c 0.69432,-0.29757 0.69432,-0.99189 0.39675,-1.58702 z m 53.66098,50.48699 v -60.50504 c 0,-0.69432 -0.39675,-0.99189 -0.99188,-0.99189 h -11.50588 c -0.69432,0 -0.8927,0.29757 -0.8927,0.99189 v 14.08478 c 0,8.33184 0.29757,16.76287 0.49595,20.73042 l -0.39676,0.0992 c -0.29756,-0.99189 -1.28945,-3.27323 -2.08296,-4.86025 l -16.26693,-30.45089 c -0.19838,-0.39676 -0.59513,-0.59514 -1.09107,-0.59514 h -10.31562 c -0.59513,0 -0.99188,0.29757 -0.99188,0.99189 v 60.50504 c 0,0.69432 0.39675,0.99189 0.99188,0.99189 h 11.70426 c 0.69432,0 0.99188,-0.29757 0.99188,-0.99189 v -13.8864 c 0,-9.22454 -0.29756,-16.96125 -0.59513,-20.53204 l 0.39675,-0.0992 c 0.39676,1.19027 1.28946,3.37241 2.08297,4.86024 l 16.26693,29.95496 c 0.19837,0.39675 0.69432,0.69432 1.09107,0.69432 h 10.11724 c 0.69432,0 0.99188,-0.29757 0.99188,-0.99189 z"
         id="text3"
         aria-label="PRINT &amp; SIGN" />
      <path
         id="rect7"
         style="opacity:1;vector-effect:none;fill:url(#linearGradient8);stroke-width:3.51366;stop-color:#000000;stop-opacity:1"
         transform="rotate(-90)"
         d="m -339.91779,267.06363 c 1.75938,0 3.17578,1.93716 3.17578,4.34342 V 757.8702 c 0,2.40626 -1.4164,4.34342 -3.17578,4.34342 -1.75938,0 -3.17578,-1.93716 -3.17578,-4.34342 V 271.40705 c 0,-2.40626 1.4164,-4.34342 3.17578,-4.34342 z" />
    </g>
  </g>
</svg>
