<?xml version="1.0" encoding="UTF-8" standalone="no"?>
<!-- Created with Inkscape (http://www.inkscape.org/) -->

<svg
   width="79.375mm"
   height="18.415861mm"
   viewBox="0 0 79.375 18.415861"
   version="1.1"
   id="svg1"
   inkscape:version="1.4 (86a8ad7, 2024-10-11)"
   sodipodi:docname="NBNE Logo Rev 7.0 300 px.svg"
   xml:space="preserve"
   xmlns:inkscape="http://www.inkscape.org/namespaces/inkscape"
   xmlns:sodipodi="http://sodipodi.sourceforge.net/DTD/sodipodi-0.dtd"
   xmlns="http://www.w3.org/2000/svg"
   xmlns:svg="http://www.w3.org/2000/svg"><sodipodi:namedview
     id="namedview1"
     pagecolor="#ffffff"
     bordercolor="#000000"
     borderopacity="0.25"
     inkscape:showpageshadow="2"
     inkscape:pageopacity="0.0"
     inkscape:pagecheckerboard="0"
     inkscape:deskcolor="#d1d1d1"
     inkscape:document-units="mm"
     inkscape:zoom="0.08"
     inkscape:cx="3112.5"
     inkscape:cy="2243.75"
     inkscape:window-width="1920"
     inkscape:window-height="1009"
     inkscape:window-x="1912"
     inkscape:window-y="-8"
     inkscape:window-maximized="1"
     inkscape:current-layer="layer1"
     showguides="true"
     showgrid="false" /><defs
     id="defs1"><filter
       style="color-interpolation-filters:sRGB"
       inkscape:label="Drop Shadow"
       id="filter44"
       x="-0.057434693"
       y="-0.057434689"
       width="1.1148694"
       height="1.1148694"><feFlood
         result="flood"
         in="SourceGraphic"
         flood-opacity="0.780392"
         flood-color="rgb(0,0,0)"
         id="feFlood43" /><feGaussianBlur
         result="blur"
         in="SourceGraphic"
         stdDeviation="5.000000"
         id="feGaussianBlur43" /><feOffset
         result="offset"
         in="blur"
         dx="0.000000"
         dy="0.000000"
         id="feOffset43" /><feComposite
         result="comp1"
         operator="in"
         in="flood"
         in2="offset"
         id="feComposite43" /><feComposite
         result="comp2"
         operator="over"
         in="SourceGraphic"
         in2="comp1"
         id="feComposite44" /></filter><filter
       style="color-interpolation-filters:sRGB"
       inkscape:label="Drop Shadow"
       id="filter46"
       x="-0.13587742"
       y="-0.13531134"
       width="1.2717547"
       height="1.2706227"><feFlood
         result="flood"
         in="SourceGraphic"
         flood-opacity="0.780392"
         flood-color="rgb(0,0,0)"
         id="feFlood44" /><feGaussianBlur
         result="blur"
         in="SourceGraphic"
         stdDeviation="5.000000"
         id="feGaussianBlur44" /><feOffset
         result="offset"
         in="blur"
         dx="0.000000"
         dy="0.000000"
         id="feOffset44" /><feComposite
         result="comp1"
         operator="in"
         in="flood"
         in2="offset"
         id="feComposite45" /><feComposite
         result="comp2"
         operator="over"
         in="SourceGraphic"
         in2="comp1"
         id="feComposite46" /></filter><filter
       style="color-interpolation-filters:sRGB"
       inkscape:label="Drop Shadow"
       id="filter48"
       x="-0.033006124"
       y="-0.17012016"
       width="1.0660123"
       height="1.3402404"><feFlood
         result="flood"
         in="SourceGraphic"
         flood-opacity="0.780392"
         flood-color="rgb(0,0,0)"
         id="feFlood46" /><feGaussianBlur
         result="blur"
         in="SourceGraphic"
         stdDeviation="5.000000"
         id="feGaussianBlur46" /><feOffset
         result="offset"
         in="blur"
         dx="0.000000"
         dy="0.000000"
         id="feOffset46" /><feComposite
         result="comp1"
         operator="in"
         in="flood"
         in2="offset"
         id="feComposite47" /><feComposite
         result="comp2"
         operator="over"
         in="SourceGraphic"
         in2="comp1"
         id="feComposite48" /></filter><filter
       style="color-interpolation-filters:sRGB"
       inkscape:label="Drop Shadow"
       id="filter50"
       x="-0.042847563"
       y="-1.2658356"
       width="1.0856951"
       height="3.5316713"><feFlood
         result="flood"
         in="SourceGraphic"
         flood-opacity="0.780392"
         flood-color="rgb(0,0,0)"
         id="feFlood48" /><feGaussianBlur
         result="blur"
         in="SourceGraphic"
         stdDeviation="5.000000"
         id="feGaussianBlur48" /><feOffset
         result="offset"
         in="blur"
         dx="0.000000"
         dy="0.000000"
         id="feOffset48" /><feComposite
         result="comp1"
         operator="in"
         in="flood"
         in2="offset"
         id="feComposite49" /><feComposite
         result="comp2"
         operator="over"
         in="SourceGraphic"
         in2="comp1"
         id="feComposite50" /></filter></defs><g
     inkscape:label="Layer 1"
     inkscape:groupmode="layer"
     id="layer1"
     transform="translate(-34.818526,33.853623)"><g
       id="g2"
       transform="matrix(0.08136219,0,0,0.08136219,31.985614,-31.099218)"><path
         style="color:#000000;fill:#000000;fill-opacity:1;stroke:none;stroke-width:2;stroke-dasharray:none;stroke-opacity:1"
         d="m 147.99046,-33.85315 c -5.38924,8.7e-5 -10.77109,0.385294 -16.10547,1.152343 -5.33443,0.766874 -10.6083,1.913404 -15.7793,3.431641 -5.17113,1.51833 -10.2265,3.403754 -15.1289,5.642578 -4.902094,2.238843 -9.638304,4.824603 -14.171884,7.738281 -4.53391,2.913546 -8.85266,6.1466391 -12.92578,9.6757821 l -0.002,0.002 c -4.07293,3.529374 -7.88879,7.344873 -11.41797,11.417969 -3.52912,4.072944 -6.76221,8.3920519 -9.67578,12.9257809 -2.91368,4.533582 -5.49944,9.269786 -7.73828,14.171875 -2.23883,4.902403 -4.12425,9.957778 -5.64258,15.128906 -1.51824,5.171002 -2.66477,10.44486 -3.43164,15.779297 -0.76705,5.334374 -1.15226,10.716228 -1.15235,16.105469 9e-5,5.389241 0.3853,10.771093 1.15235,16.105468 0.76687,5.33444 1.9134,10.6083 3.43164,15.7793 1.51836,5.17094 3.40378,10.22668 5.64258,15.1289 2.23882,4.90228 4.82458,9.63812 7.73828,14.17188 2.91357,4.53373 6.14666,8.85284 9.67578,12.92578 h 0.002 c 3.5292,4.0729 7.34311,7.88878 11.41602,11.41797 4.0731,3.52934 8.3938,6.76401 12.92773,9.67774 4.53358,2.91368 9.26979,5.49944 14.171884,7.73828 4.9024,2.23882 9.95777,4.12425 15.1289,5.64258 5.171,1.51824 10.44487,2.66671 15.7793,3.43359 v -0.002 c 5.33438,0.76705 10.71623,1.15225 16.10547,1.15234 1.85177,0 3.70319,-0.0439 5.55273,-0.13477 1.84909,-0.0909 3.69666,-0.22863 5.53907,-0.41015 1.84287,-0.18148 3.68192,-0.40801 5.51367,-0.67969 1.83191,-0.27172 3.65629,-0.58793 5.47265,-0.94922 h 0.002 c 1.81567,-0.36122 3.6222,-0.76694 5.41797,-1.21679 1.7964,-0.44997 3.58135,-0.94485 5.35351,-1.48243 h 0.002 c 1.77142,-0.5374 3.52855,-1.11855 5.27148,-1.74218 1.74371,-0.6238 3.47259,-1.28944 5.18359,-1.99805 1.71092,-0.70865 3.40405,-1.4602 5.07813,-2.25195 1.67399,-0.79175 3.32976,-1.62512 4.96289,-2.49805 1.63235,-0.87267 3.24445,-1.78466 4.83203,-2.73633 l 0.002,-0.002 c 1.5877,-0.9515 3.15229,-1.94249 4.69141,-2.9707 h 0.002 c 1.5393,-1.02871 3.05208,-2.09625 4.53907,-3.19922 1.48737,-1.10302 2.94743,-2.24136 4.3789,-3.41602 1.43164,-1.17488 2.83477,-2.38519 4.20703,-3.62891 1.3721,-1.24368 2.71403,-2.52056 4.02344,-3.83007 1.30952,-1.30943 2.58639,-2.65135 3.83008,-4.02344 1.24291,-1.37159 2.4528,-2.77419 3.62695,-4.20508 l 0.002,-0.002 c 1.17424,-1.43079 2.31337,-2.8903 3.41602,-4.37696 v -0.002 c 1.10312,-1.48739 2.17041,-3.00128 3.19922,-4.54101 1.0289,-1.53969 2.01859,-3.10309 2.9707,-4.69141 0.95218,-1.5885 1.86521,-3.20067 2.73828,-4.83398 0.87294,-1.63313 1.7063,-3.28695 2.49805,-4.96094 v -0.002 c 0.79175,-1.67408 1.5433,-3.36721 2.25195,-5.07812 0.70838,-1.71044 1.37443,-3.43852 1.99805,-5.18164 v -0.002 c 0.62364,-1.74294 1.20479,-3.50006 1.74219,-5.27149 v -0.002 c 0.53739,-1.77155 1.03258,-3.55578 1.48242,-5.35156 v -0.002 c 0.44985,-1.79577 0.85557,-3.60229 1.2168,-5.41797 v -0.002 c 0.36129,-1.816371 0.67749,-3.640745 0.94922,-5.472657 0.27158,-1.831105 0.49824,-3.669497 0.67968,-5.511718 v -0.002 c 0.18152,-1.842402 0.31924,-3.689973 0.41016,-5.539062 0.0909,-1.849541 0.13477,-3.700963 0.13476,-5.552734 -9e-5,-5.389241 -0.38529,-10.771095 -1.15234,-16.105469 -0.76696,-5.333825 -1.91348,-10.606937 -3.43164,-15.777344 v -0.002 c -1.51806,-5.170493 -3.4042,-10.227051 -5.64258,-15.128906 -2.23884,-4.902089 -4.8246,-9.638293 -7.73828,-14.171875 -2.91375,-4.533747 -6.14842,-8.8528549 -9.67773,-12.9257809 -3.52918,-4.073096 -7.34505,-7.888595 -11.41797,-11.417969 -4.07295,-3.529122 -8.39205,-6.7641671 -12.92578,-9.6777351 -4.53377,-2.913702 -9.2696,-5.499462 -14.17188,-7.738281 -4.90222,-2.238798 -9.95797,-4.124222 -15.1289,-5.642578 -5.17101,-1.518238 -10.44486,-2.664767 -15.7793,-3.431641 -5.33438,-0.767049 -10.71623,-1.152256 -16.10547,-1.152343 z m 0,29.0839841 c 4.0042,6.5e-5 8.00336,0.287504 11.9668,0.857422 3.96348,0.569786 7.8806,1.420778 11.72265,2.548828 3.84201,1.12813798 7.59984,2.529933 11.24219,4.193359 3.64239,1.663442 7.16071,3.585121 10.5293,5.75 3.36856,2.1647799 6.57732,4.5673179 9.60351,7.1894539 3.02618,2.622323 5.8622,5.458067 8.48438,8.484375 2.62228,3.026182 5.02454,6.234943 7.18945,9.603515 2.16486,3.368449 4.08654,6.887048 5.75,10.529297 1.66331,3.642494 3.06342,7.400053 4.19141,11.242188 1.12818,3.842042 1.98086,7.759162 2.55078,11.722656 0.56992,3.963437 0.85735,7.962593 0.85742,11.966797 0,1.375864 -0.0341,2.750792 -0.10156,4.125 -0.0676,1.374353 -0.16975,2.747806 -0.30469,4.117187 -0.13483,1.36925 -0.30205,2.734719 -0.50391,4.095703 -0.20189,1.361109 -0.43859,2.716844 -0.70703,4.066406 -0.26848,1.34951 -0.56992,2.692634 -0.90429,4.027344 -0.33433,1.334725 -0.7002,2.661805 -1.09961,3.978515 -0.39928,1.31601 -0.83159,2.62313 -1.29493,3.91797 -0.46348,1.29557 -0.95983,2.58029 -1.48632,3.85156 -0.52653,1.27121 -1.08361,2.5296 -1.67188,3.77344 -0.58805,1.24323 -1.20715,2.47265 -1.85547,3.68555 -0.64869,1.21355 -1.32769,2.40958 -2.03515,3.58984 h 0.002 c -0.70742,1.18012 -1.44451,2.34234 -2.20898,3.48633 v 0.002 c -0.76441,1.14402 -1.55734,2.26791 -2.37696,3.37305 -0.81967,1.10512 -1.66615,2.19033 -2.53906,3.2539 l -0.002,0.002 c -0.8728,1.0637 -1.77138,2.10541 -2.69532,3.125 -0.92347,1.01876 -1.87143,2.01604 -2.84375,2.98828 h -0.002 c -0.97289,0.97297 -1.96882,1.92165 -2.98828,2.84571 -1.01959,0.92408 -2.06129,1.82238 -3.125,2.69531 -1.06358,0.87277 -2.14683,1.71952 -3.25195,2.53906 h -0.002 c -1.10513,0.81976 -2.23097,1.61241 -3.375,2.37695 -1.14368,0.76401 -2.30459,1.50004 -3.48437,2.20704 h -0.002 v 0.002 c -1.18013,0.70745 -2.37839,1.3845 -3.5918,2.0332 -1.21291,0.64829 -2.4423,1.26745 -3.68555,1.85547 -1.24384,0.58827 -2.50028,1.14534 -3.77148,1.67187 -1.27127,0.5265 -2.55599,1.02285 -3.85157,1.48633 -1.29542,0.46354 -2.60331,0.8955 -3.91992,1.29492 -1.31612,0.39921 -2.64244,0.76544 -3.97656,1.09961 -1.33471,0.33438 -2.67783,0.63582 -4.02734,0.9043 -1.34956,0.26844 -2.7053,0.50514 -4.06641,0.70703 -1.36099,0.20186 -2.72645,0.36907 -4.0957,0.50391 -1.36938,0.13493 -2.74284,0.2371 -4.11719,0.30468 -1.37421,0.0675 -2.74914,0.10157 -4.125,0.10157 -4.0042,-7e-5 -8.00336,-0.28751 -11.9668,-0.85743 -3.96348,-0.56979 -7.8806,-1.42077 -11.72265,-2.54882 -3.84215,-1.12812 -7.59971,-2.52992 -11.24219,-4.19336 -3.64225,-1.66346 -7.16085,-3.58514 -10.5293,-5.75 -3.368714,-2.1649 -6.579154,-4.56716 -9.605474,-7.18946 -3.02582,-2.62189 -5.86048,-5.45665 -8.48242,-8.48242 v -0.002 c -2.62174,-3.02585 -5.02495,-6.23539 -7.18945,-9.60351 -2.16488,-3.36859 -4.08656,-6.88691 -5.75,-10.5293 -1.66343,-3.64235 -3.06522,-7.40018 -4.19336,-11.24219 -1.12805,-3.842051 -1.97904,-7.759172 -2.54883,-11.722656 -0.56992,-3.963438 -0.85736,-7.962593 -0.85742,-11.966796 6e-5,-4.004204 0.2875,-8.003359 0.85742,-11.966797 0.56979,-3.963484 1.42078,-7.880604 2.54883,-11.722656 1.12812,-3.842146 2.52991,-7.599705 4.19336,-11.242188 1.66346,-3.642249 3.58514,-7.160848 5.75,-10.529297 2.16478,-3.368559 4.56732,-6.57732 7.18945,-9.603515 2.62188,-3.02596 5.45663,-5.862305 8.48242,-8.484375 3.02633,-2.622152 6.23677,-5.02469 9.605474,-7.1894539 3.36845,-2.164862 6.88705,-4.08654 10.5293,-5.75 3.64248,-1.663445 7.40004,-3.06524002 11.24219,-4.193359 3.84205,-1.12805 7.75917,-1.979041 11.72265,-2.548828 3.96344,-0.569918 7.9626,-0.857357 11.9668,-0.857422 z"
         id="path2" /><g
         id="g9"
         transform="matrix(1.0498265,0,0,1.0498265,-152.74792,65.953615)"
         style="fill:#000000;fill-opacity:1;stroke:none;stroke-width:1.90508;stroke-dasharray:none;stroke-opacity:1"><path
           d="m 295.68183,30.485691 a 23.369531,30.215877 45 0 1 -5.18756,1.322887 23.369531,30.215877 45 0 1 -6.81841,-0.02634 23.369531,30.215877 45 0 1 -6.11939,-1.850948 23.369531,30.215877 45 0 1 -5.00486,-3.549532 23.369531,30.215877 45 0 1 -3.54954,-5.004873 23.369531,30.215877 45 0 1 -1.85094,-6.119386 23.369531,30.215877 45 0 1 -0.0264,-6.8184042 23.369531,30.215877 45 0 1 0.99104,-3.8847053 L 232.91885,66.549896 Z"
           style="fill:#000000;fill-opacity:1;stroke:none;stroke-width:1.90508;stroke-dasharray:none;stroke-opacity:1"
           id="path9-4" /><path
           d="m 277.24781,-5.0238802 a 23.369531,30.215877 45 0 1 5.18756,-1.322887 23.369531,30.215877 45 0 1 6.81841,0.02634 23.369531,30.215877 45 0 1 6.11939,1.850948 23.369531,30.215877 45 0 1 5.00486,3.54953197 23.369531,30.215877 45 0 1 3.54954,5.00487303 23.369531,30.215877 45 0 1 1.85094,6.1193862 23.369531,30.215877 45 0 1 0.0264,6.818405 23.369531,30.215877 45 0 1 -0.99104,3.884705 l 35.19692,-61.995507 z"
           style="fill:#000000;fill-opacity:1;stroke:none;stroke-width:1.90508;stroke-dasharray:none;stroke-opacity:1"
           id="path9-4-2" /></g><g
         id="g1"
         transform="translate(0,-17.095742)"><path
           style="font-size:114.238px;line-height:0.9;font-family:'Conduit ITC ExtraBold';-inkscape-font-specification:'Conduit ITC ExtraBold, ';text-align:center;letter-spacing:-3.00806px;text-anchor:middle;stroke-width:3.06313"
           d="M 340.07996,165.64467 V 95.959489 c 0,-0.799666 -0.45695,-1.14238 -1.14238,-1.14238 h -13.2516 c -0.79967,0 -1.02815,0.342714 -1.02815,1.14238 v 16.221791 c 0,9.596 0.34272,19.30623 0.57119,23.87575 l -0.45695,0.11423 c -0.34271,-1.14238 -1.48509,-3.76985 -2.399,-5.59766 L 303.63804,95.502537 c -0.22847,-0.456952 -0.68543,-0.685428 -1.25662,-0.685428 h -11.88075 c -0.68543,0 -1.14238,0.342714 -1.14238,1.14238 v 69.685181 c 0,0.79966 0.45695,1.14238 1.14238,1.14238 h 13.48009 c 0.79966,0 1.14238,-0.34272 1.14238,-1.14238 v -15.99332 c 0,-10.62414 -0.34272,-19.5347 -0.68543,-23.64727 l 0.45695,-0.11424 c 0.45695,1.37086 1.48509,3.8841 2.399,5.59767 l 18.73503,34.49987 c 0.22848,0.45695 0.79967,0.79967 1.25662,0.79967 h 11.65227 c 0.79967,0 1.14238,-0.34272 1.14238,-1.14238 z m 63.70703,-19.87741 v -2.399 c 0,-4.45528 -2.62748,-9.48176 -6.39733,-12.22347 -0.79967,-0.57119 -0.68543,-0.9139 0,-1.48509 3.76985,-2.74171 6.39733,-7.31123 6.39733,-11.88075 v -2.17053 c 0,-13.2516 -8.56785,-20.791311 -22.8476,-20.791311 h -28.5595 c -0.68543,0 -1.14238,0.342714 -1.14238,1.14238 v 69.685181 c 0,0.79966 0.45695,1.14238 1.14238,1.14238 h 28.5595 c 14.39398,0 22.8476,-8.45361 22.8476,-21.01979 z m -15.76485,-28.5595 c 0,3.65561 -2.85595,6.51156 -7.08275,6.51156 h -12.45195 c -0.9139,0 -1.25661,-0.45695 -1.25661,-1.25662 v -12.22346 c 0,-0.79967 0.34271,-1.25662 1.25661,-1.25662 h 12.45195 c 4.11256,0 7.08275,2.97019 7.08275,6.6258 z m 0,28.78797 c 0,3.65562 -3.19866,6.51157 -7.08275,6.51157 h -12.45195 c -0.9139,0 -1.25661,-0.34272 -1.25661,-1.14238 v -13.25161 c 0,-0.79967 0.34271,-1.25662 1.25661,-1.25662 h 12.45195 c 4.11256,0 7.08275,2.85595 7.08275,6.51157 z m 75.01659,19.64894 V 95.959489 c 0,-0.799666 -0.45696,-1.14238 -1.14238,-1.14238 h -13.25161 c -0.79967,0 -1.02814,0.342714 -1.02814,1.14238 v 16.221791 c 0,9.596 0.34271,19.30623 0.57119,23.87575 l -0.45696,0.11423 c -0.34271,-1.14238 -1.48509,-3.76985 -2.39899,-5.59766 L 426.5968,95.502537 c -0.22847,-0.456952 -0.68542,-0.685428 -1.25661,-0.685428 h -11.88076 c -0.68542,0 -1.14238,0.342714 -1.14238,1.14238 v 69.685181 c 0,0.79966 0.45696,1.14238 1.14238,1.14238 h 13.48009 c 0.79966,0 1.14238,-0.34272 1.14238,-1.14238 v -15.99332 c 0,-10.62414 -0.34272,-19.5347 -0.68543,-23.64727 l 0.45695,-0.11424 c 0.45695,1.37086 1.4851,3.8841 2.399,5.59767 l 18.73503,34.49987 c 0.22848,0.45695 0.79967,0.79967 1.25662,0.79967 h 11.65228 c 0.79966,0 1.14238,-0.34272 1.14238,-1.14238 z m 57.08122,0 v -11.99499 c 0,-0.79967 -0.45695,-1.14238 -1.14238,-1.14238 h -27.53136 c -0.9139,0 -1.25662,-0.34272 -1.25662,-1.14238 v -12.79466 c 0,-0.79966 0.34272,-1.14238 1.25662,-1.14238 h 22.61913 c 0.68542,0 1.14238,-0.34271 1.14238,-1.14238 v -11.99499 c 0,-0.79966 -0.45696,-1.14238 -1.14238,-1.14238 h -22.61913 c -0.9139,0 -1.25662,-0.34271 -1.25662,-1.14238 v -11.76651 c 0,-0.79967 0.34272,-1.25662 1.25662,-1.25662 h 27.53136 c 0.79967,0 1.14238,-0.22848 1.14238,-1.02814 V 95.959489 c 0,-0.799666 -0.45695,-1.14238 -1.14238,-1.14238 h -43.63892 c -0.68542,0 -1.14238,0.342714 -1.14238,1.14238 v 69.685181 c 0,0.79966 0.45696,1.14238 1.14238,1.14238 h 43.63892 c 0.79967,0 1.14238,-0.34272 1.14238,-1.14238 z m 73.26508,-48.77963 c 0,-13.59432 -8.79632,-22.047931 -22.73336,-22.047931 h -25.24659 c -0.68543,0 -1.14238,0.342714 -1.14238,1.14238 v 69.685181 c 0,0.79966 0.45695,1.14238 1.14238,1.14238 h 13.70855 c 0.68543,0 1.14238,-0.34272 1.14238,-1.14238 v -27.07441 c 0,-0.79966 0.34272,-1.14238 1.25662,-1.14238 h 9.13904 c 13.70856,0 22.73336,-8.91056 22.73336,-20.56284 z m -15.76484,-0.22847 c 0,3.42714 -3.08443,6.51156 -6.96852,6.51156 h -9.13904 c -0.9139,0 -1.25662,-0.34271 -1.25662,-1.14238 v -11.76651 c 0,-0.79967 0.34272,-1.25662 1.25662,-1.25662 h 9.13904 c 3.88409,0 6.96852,3.19866 6.96852,6.6258 z m 46.22857,11.30956 v -12.9089 c 0,-0.57119 -0.34272,-1.02814 -1.02815,-1.14238 -0.79966,-0.11423 -1.71357,-0.22847 -2.97018,-0.22847 -4.34105,0 -8.45362,2.05628 -10.28142,4.34104 -0.57119,0.57119 -1.4851,0.45695 -1.4851,-0.57119 v -2.62747 c 0,-0.79967 -0.34271,-1.14238 -1.14238,-1.14238 h -10.85261 c -0.68543,0 -1.14238,0.34271 -1.14238,1.14238 v 50.83591 c 0,0.79966 0.45695,1.14238 1.14238,1.14238 h 13.48009 c 0.68542,0 1.14238,-0.34272 1.14238,-1.14238 V 135.3716 c 0,-3.99833 2.85595,-6.85428 6.85428,-6.85428 1.71357,0 3.19866,0.22847 4.56952,0.57119 1.02814,0.22847 1.71357,-0.11424 1.71357,-1.14238 z m 18.81133,-26.61746 c 0,-4.569515 -3.65562,-7.996655 -8.22514,-7.996655 -4.45528,0 -8.22513,3.42714 -8.22513,7.996655 0,4.56952 3.54137,7.88243 8.22513,7.88243 4.56952,0 8.22514,-3.42714 8.22514,-7.88243 z m -0.34272,64.316 v -50.83591 c 0,-0.79967 -0.45695,-1.14238 -1.02814,-1.14238 h -13.59432 c -0.79967,0 -1.14238,0.34271 -1.14238,1.14238 v 50.83591 c 0,0.79966 0.34271,1.14238 1.14238,1.14238 h 13.59432 c 0.68543,0 1.02814,-0.34272 1.02814,-1.14238 z m 54.11105,0 V 133.8865 c 0,-12.45194 -8.11089,-20.22012 -21.24826,-20.22012 -3.65562,0 -7.65395,1.14238 -10.28142,3.3129 -0.57119,0.45695 -1.02815,0.22848 -1.02815,-0.34271 v -1.94205 c 0,-0.68543 -0.34271,-1.02814 -1.14238,-1.02814 H 651.8756 c -0.68542,0 -1.14238,0.34271 -1.14238,1.14238 v 50.83591 c 0,0.79966 0.45696,1.14238 1.14238,1.14238 h 13.48009 c 0.68543,0 1.14238,-0.34272 1.14238,-1.14238 V 133.8865 c 0,-3.65561 2.97019,-6.51156 7.08275,-6.51156 4.11257,0 6.96852,2.85595 6.96852,6.51156 v 31.75817 c 0,0.79966 0.45695,1.14238 1.14238,1.14238 h 13.70856 c 0.68543,0 1.02814,-0.34272 1.02814,-1.14238 z m 35.83297,0.9139 v -11.76651 c 0,-0.68543 -0.34271,-1.14238 -1.14238,-1.14238 h -1.94205 c -4.68375,0 -6.96851,-2.85595 -6.96851,-7.76819 v -16.67874 c 0,-0.79967 0.34271,-1.25662 1.37085,-1.25662 h 7.65395 c 0.79966,0 1.02814,-0.22848 1.02814,-1.02814 v -12.10923 c 0,-0.79967 -0.22848,-1.14238 -1.02814,-1.14238 h -7.65395 c -1.02814,0 -1.37085,-0.34272 -1.37085,-1.14238 v -7.197 c 0,-0.79966 -0.22848,-1.02814 -1.02815,-1.02814 h -7.19699 c -0.45695,0 -1.02814,0.22848 -1.37086,0.57119 L 698.3327,119.1498 v 7.76819 c 0,0.79966 0.34272,1.02814 1.14238,1.02814 h 5.7119 c 1.02815,0 1.37086,0.45695 1.37086,1.25662 v 17.82112 c 0,13.70856 8.56785,20.79132 19.42046,20.79132 h 4.798 c 1.02814,0 1.48509,-0.45695 1.48509,-1.25662 z m 86.28819,0.68543 v -13.48008 c 0,-0.79967 -0.34271,-1.4851 -1.25662,-1.4851 -4.56952,-0.22847 -8.45361,-2.05628 -12.10923,-4.79799 -0.9139,-0.68543 -1.02814,-1.25662 -0.57119,-2.17053 2.05629,-3.99833 4.56952,-6.85428 8.68209,-6.85428 h 4.11257 c 0.79967,0 1.14238,-0.45695 1.14238,-1.25661 v -12.79466 c 0,-0.79967 -0.34271,-1.37086 -1.25662,-1.37086 h -3.99833 c -10.73837,0 -16.22179,5.59767 -19.99165,11.88076 -0.45695,0.68542 -1.02814,0.68542 -1.48509,0.34271 -0.79967,-0.68543 -1.71357,-1.48509 -2.62748,-2.17052 -0.57119,-0.45695 -0.45695,-1.02814 0.22848,-1.4851 5.36919,-3.19866 9.36752,-7.88242 9.36752,-14.62246 v -2.17052 c 0,-12.68042 -9.02481,-21.134031 -23.30456,-21.134031 -12.56618,0 -22.73336,8.796321 -22.73336,21.819461 0,6.39732 2.17052,10.73837 5.59766,14.16551 0.57119,0.68543 0.68543,1.25662 -0.11423,1.94204 -3.19867,2.85595 -5.36919,6.74005 -5.36919,11.76652 v 2.85595 c 0,13.36584 8.1109,22.16217 21.9337,22.16217 h 3.54137 c 8.1109,0 13.25161,-2.85595 16.90723,-6.74004 0.68543,-0.68543 1.37085,-0.68543 2.17052,0 4.91223,3.99833 10.73837,6.85428 19.87741,6.85428 0.91391,0 1.25662,-0.45695 1.25662,-1.25662 z m -35.75649,-50.60743 c 0,3.42714 -2.28476,5.36918 -6.05462,6.96851 -1.02814,0.45696 -1.94204,0.34272 -2.97019,-0.34271 -2.97018,-2.05628 -4.91223,-4.45528 -4.91223,-8.45361 0,-4.22681 2.97019,-6.85428 7.08276,-6.85428 3.88409,0 6.85428,3.08442 6.85428,6.74004 z m 1.71357,33.92868 c -1.59934,1.71357 -3.42714,2.74171 -5.94038,2.74171 h -3.19866 c -3.65562,0 -6.51157,-2.62747 -6.51157,-5.94037 v -2.62748 c 0,-2.05628 0.79967,-3.65561 2.28476,-4.91223 0.9139,-0.79967 1.48509,-0.57119 2.399,0 3.99833,2.399 7.88242,5.25495 10.85261,8.33937 1.02814,1.02815 1.02814,1.4851 0.11424,2.399 z m 99.19711,-3.76985 c 0,-13.36585 -7.88242,-18.73503 -18.73503,-22.96184 -6.28309,-2.399 -13.02313,-4.11257 -13.02313,-9.25328 0,-4.11257 3.08443,-6.85428 7.08276,-6.85428 h 1.71357 c 3.88409,0 6.51156,1.82781 8.11089,5.82614 0.34272,1.02814 1.02815,1.25662 1.71357,0.9139 l 11.30956,-5.7119 c 0.68543,-0.34271 1.02815,-1.59933 0.34272,-2.74171 -0.91391,-1.71357 -2.05629,-3.42714 -3.42714,-4.91223 -3.99833,-4.455283 -9.71023,-7.653947 -18.0496,-7.653947 h -1.71357 c -14.27975,0 -23.07608,8.453607 -23.07608,21.362507 0,13.13737 8.45361,18.0496 18.96351,22.27641 6.85428,2.74171 12.79465,4.2268 12.79465,9.9387 0,4.68376 -3.65561,6.74005 -7.76818,6.74005 h -2.85595 c -3.88409,0 -6.51157,-1.82781 -8.1109,-5.82614 -0.34271,-1.02814 -1.02814,-1.25662 -1.71357,-0.91391 l -11.30956,5.7119 c -0.68543,0.34272 -1.02814,1.59934 -0.34271,2.74172 1.02814,1.8278 2.28476,3.65561 3.76985,5.25494 3.88409,4.34105 9.59599,7.31124 17.70689,7.31124 h 3.65562 c 14.50822,0 22.96183,-8.33938 22.96183,-21.24827 z m 22.12438,-45.46673 c 0,-4.569515 -3.65562,-7.996655 -8.22514,-7.996655 -4.45528,0 -8.22513,3.42714 -8.22513,7.996655 0,4.56952 3.54137,7.88243 8.22513,7.88243 4.56952,0 8.22514,-3.42714 8.22514,-7.88243 z m -0.34272,64.316 v -50.83591 c 0,-0.79967 -0.45695,-1.14238 -1.02814,-1.14238 h -13.59432 c -0.79967,0 -1.14238,0.34271 -1.14238,1.14238 v 50.83591 c 0,0.79966 0.34271,1.14238 1.14238,1.14238 h 13.59432 c 0.68543,0 1.02814,-0.34272 1.02814,-1.14238 z m 57.08121,10.62413 v -2.399 c 0,-9.13904 -6.6258,-14.39398 -17.47841,-14.39398 H 932.0651 c -1.25662,0 -1.82781,-1.59934 -1.82781,-2.74172 0,-1.14238 0.57119,-2.51323 1.82781,-2.51323 h 5.59766 c 11.65227,0 19.87741,-7.53971 19.87741,-18.96351 v -20.4486 c 0,-0.79967 -0.45695,-1.14238 -1.14238,-1.14238 h -10.85261 c -0.45695,0 -0.9139,0.22847 -0.9139,0.57119 l -0.22848,1.59933 c -0.11424,0.9139 -0.57119,1.25662 -1.37086,0.79967 -2.74171,-1.82781 -6.28309,-2.97019 -10.39565,-2.97019 -11.99499,0 -21.0198,8.1109 -21.0198,19.87741 v 1.48509 c 0,5.7119 2.51324,10.73838 6.28309,13.93704 0.57119,0.45695 0.57119,1.02814 0.11424,1.48509 -1.25662,1.4851 -2.17052,3.65562 -2.17052,6.05462 0,2.17052 0.68543,3.99833 1.82781,5.36918 0.34271,0.45696 0.45695,1.02815 -0.22848,1.4851 -3.42714,2.28476 -5.82614,6.28309 -5.82614,10.73837 v 2.17052 c 0,9.82447 7.65395,16.2218 18.16385,16.2218 h 14.7367 c 10.39566,0 18.0496,-6.28309 18.0496,-16.2218 z m -19.87741,-41.12568 c 0,4.11257 -3.19866,6.96852 -7.65395,6.96852 -4.68375,0 -7.76818,-2.97019 -7.76818,-6.96852 v -1.48509 c 0,-3.99833 3.19866,-7.08276 7.76818,-7.08276 4.45529,0 7.65395,3.08443 7.65395,7.08276 z m 4.91223,41.4684 c 0,2.51323 -1.25661,3.88409 -3.42714,3.88409 h -14.05127 c -2.05628,0 -3.42714,-1.4851 -3.42714,-3.42714 v -1.71357 c 0,-2.62748 1.37086,-3.99833 3.42714,-3.99833 h 14.05127 c 2.17053,0 3.42714,1.37085 3.42714,3.19866 z m 62.79304,-10.96685 V 133.8865 c 0,-12.45194 -8.1108,-20.22012 -21.24822,-20.22012 -3.65561,0 -7.65394,1.14238 -10.28142,3.3129 -0.57119,0.45695 -1.02814,0.22848 -1.02814,-0.34271 v -1.94205 c 0,-0.68543 -0.34271,-1.02814 -1.14238,-1.02814 h -10.85261 c -0.68543,0 -1.14238,0.34271 -1.14238,1.14238 v 50.83591 c 0,0.79966 0.45695,1.14238 1.14238,1.14238 h 13.48008 c 0.68543,0 1.14238,-0.34272 1.14238,-1.14238 V 133.8865 c 0,-3.65561 2.97019,-6.51156 7.08276,-6.51156 4.11257,0 6.96852,2.85595 6.96852,6.51156 v 31.75817 c 0,0.79966 0.45695,1.14238 1.14238,1.14238 h 13.70855 c 0.6854,0 1.0281,-0.34272 1.0281,-1.14238 z"
           id="text9"
           aria-label="NBNE Print &amp; Sign" /><path
           id="rect1"
           style="stroke-width:0.0937138"
           d="m 289.35843,200.81995 h 721.03597 v 8.76639 H 289.35843 Z" /></g></g></g></svg>
